<?xml version="1.0" standalone="no"?>
<!DOCTYPE svg PUBLIC "-//W3C//DTD SVG 20010904//EN"
 "http://www.w3.org/TR/2001/REC-SVG-20010904/DTD/svg10.dtd">
<svg version="1.0" xmlns="http://www.w3.org/2000/svg"
 width="38.000000pt" height="38.000000pt" viewBox="0 0 38.000000 38.000000"
 preserveAspectRatio="xMidYMid meet">

<g transform="translate(0.000000,38.000000) scale(0.100000,-0.100000)"
fill="#000000" stroke="none">
<path d="M47 332 c-14 -15 -17 -41 -17 -144 0 -153 3 -158 103 -158 l67 0 0
60 c0 53 -2 60 -20 60 -15 0 -20 7 -20 25 0 18 5 25 20 25 15 0 20 7 20 28 0
44 26 72 66 72 27 0 34 -4 34 -19 0 -13 -8 -21 -22 -23 -17 -2 -24 -11 -26
-30 -3 -24 0 -28 23 -28 22 0 26 -4 23 -22 -2 -15 -11 -24 -25 -26 -21 -3 -23
-9 -23 -63 l0 -59 34 0 c60 0 66 15 66 159 0 166 5 161 -162 161 -108 0 -127
-2 -141 -18z"/>
</g>
</svg>
