<?xml version="1.0" standalone="no"?>
<!DOCTYPE svg PUBLIC "-//W3C//DTD SVG 20010904//EN"
 "http://www.w3.org/TR/2001/REC-SVG-20010904/DTD/svg10.dtd">
<svg version="1.0" xmlns="http://www.w3.org/2000/svg"
 width="38.000000pt" height="38.000000pt" viewBox="0 0 38.000000 38.000000"
 preserveAspectRatio="xMidYMid meet">

<g transform="translate(0.000000,38.000000) scale(0.100000,-0.100000)"
fill="#000000" stroke="none">
<path d="M0 190 l0 -190 190 0 190 0 0 190 0 190 -190 0 -190 0 0 -190z m259
130 c27 -13 46 -33 61 -65 30 -63 21 -117 -30 -167 -44 -44 -60 -48 -60 -14 0
13 -3 31 -6 39 -3 10 3 17 20 21 31 8 40 34 31 94 l-6 47 -78 0 -78 0 -11 -42
c-13 -49 -1 -89 30 -98 10 -4 18 -13 18 -21 0 -18 -10 -18 -38 2 -12 8 -22 12
-22 8 0 -13 33 -44 47 -44 7 0 13 -7 13 -15 0 -23 -16 -18 -54 15 -133 118 5
321 163 240z"/>
</g>
</svg>
