<?xml version="1.0" standalone="no"?>
<!DOCTYPE svg PUBLIC "-//W3C//DTD SVG 20010904//EN"
 "http://www.w3.org/TR/2001/REC-SVG-20010904/DTD/svg10.dtd">
<svg version="1.0" xmlns="http://www.w3.org/2000/svg"
 width="38.000000pt" height="38.000000pt" viewBox="0 0 38.000000 38.000000"
 preserveAspectRatio="xMidYMid meet">

<g transform="translate(0.000000,38.000000) scale(0.100000,-0.100000)"
fill="#000000" stroke="none">
<path d="M40 340 c-11 -11 -20 -24 -20 -30 0 -5 9 -19 20 -30 11 -11 25 -20
30 -20 13 0 50 37 50 50 0 13 -37 50 -50 50 -5 0 -19 -9 -30 -20z m54 -16 c7
-19 -10 -44 -31 -44 -17 0 -27 24 -19 45 7 20 42 19 50 -1z"/>
<path d="M247 254 c-4 -4 -30 -7 -57 -5 l-50 2 0 -116 0 -116 38 3 37 3 5 75
c5 68 7 75 27 78 21 3 22 -1 25 -75 l3 -78 40 0 40 0 0 92 c0 79 -3 96 -20
113 -22 21 -76 36 -88 24z m-48 -31 c9 -17 10 -17 28 0 26 23 68 22 93 -3 17
-17 20 -33 20 -100 0 -79 0 -80 -25 -80 -24 0 -25 2 -25 68 0 70 -10 92 -41
92 -35 0 -49 -28 -49 -96 0 -62 -1 -64 -25 -64 -25 0 -25 0 -25 93 0 52 3 97
7 100 12 12 32 7 42 -10z"/>
<path d="M30 135 l0 -115 40 0 40 0 0 115 0 115 -40 0 -40 0 0 -115z m60 4 c0
-98 0 -100 -22 -97 -22 3 -23 9 -26 87 -3 98 0 111 28 111 19 0 20 -6 20 -101z"/>
</g>
</svg>
