<?xml version="1.0" standalone="no"?>
<!DOCTYPE svg PUBLIC "-//W3C//DTD SVG 20010904//EN"
 "http://www.w3.org/TR/2001/REC-SVG-20010904/DTD/svg10.dtd">
<svg version="1.0" xmlns="http://www.w3.org/2000/svg"
 width="15.000000pt" height="15.000000pt" viewBox="0 0 15.000000 15.000000"
 preserveAspectRatio="xMidYMid meet">

<g transform="translate(0.000000,15.000000) scale(0.100000,-0.100000)"
fill="#000000" stroke="none">
<path d="M0 75 l0 -75 75 0 75 0 0 75 0 75 -75 0 -75 0 0 -75z m118 43 c17
-17 15 -64 -5 -84 -12 -12 -18 -13 -21 -4 -2 6 1 17 7 23 6 6 11 21 11 34 0
20 -5 23 -35 23 -30 0 -35 -3 -35 -23 0 -13 3 -27 7 -31 7 -7 14 -36 8 -36
-14 0 -35 36 -35 59 0 35 17 51 55 51 17 0 36 -5 43 -12z"/>
</g>
</svg>
